<?xml version="1.0" encoding="UTF-8"?>
<svg width="88px" height="63px" viewBox="0 0 88 63" version="1.1" xmlns="http://www.w3.org/2000/svg" xmlns:xlink="http://www.w3.org/1999/xlink">
    <!-- Generator: sketchtool 54.1 (76490) - https://sketchapp.com -->
    <title>DB6D4229-0984-4B1A-BE4D-9FB72A196CC9</title>
    <desc>Created with sketchtool.</desc>
    <defs>
        <polygon id="path-1" points="0.0371102025 0.280736842 5.8405883 0.280736842 5.8405883 6.1866 0.0371102025 6.1866"></polygon>
        <polygon id="path-3" points="0.350837313 0.00909078947 0.903076119 0.00909078947 0.903076119 0.552631579 0.350837313 0.552631579"></polygon>
    </defs>
    <g id="Site-vitrine" stroke="none" stroke-width="1" fill="none" fill-rule="evenodd">
        <g id="01.-BO-Vision---Hero-V2" transform="translate(-135.000000, -15.000000)">
            <g id="Group-58" transform="translate(135.000000, 15.000000)">
                <polygon id="Fill-1" fill="#FFFFFF" points="0 33.9994449 4.02217529 34 4.02323126 24.4659001 7.79039071 24.4659001 7.79039071 20.4329897 4.02375924 20.4324346 4.02375924 17.0828707 8 17.0834259 8 13.0011102 0.00211193242 13"></polygon>
                <path d="M15.584155,27.2522006 L17.4656907,27.2522006 L16.5498456,16.569295 L16.3570362,16.569295 L15.584155,27.2522006 Z M11,33.9988898 L13.0042326,13 L20.0237028,13.0011102 L22,34 L18.0682203,33.9994449 L17.7790061,30.6016759 L15.2702918,30.6011208 L15.0287322,33.9994449 L11,33.9988898 Z" id="Fill-2" fill="#FFFFFF"></path>
                <g id="Group-57" transform="translate(14.000000, 0.000000)">
                    <path d="M12.7872,32.1344763 C11.8710358,31.1773184 11.4132299,29.8631605 11.4132299,28.1920026 L11.4143343,18.5541079 C11.4143343,16.4773184 11.8279612,14.9117132 12.6552149,13.8572921 C13.4819164,12.8028711 14.7791254,12.2756605 16.5462896,12.2756605 C18.0864836,12.2762132 19.3268119,12.6984237 20.2672746,13.5417395 C21.2071851,14.3856079 21.6776925,15.6025026 21.6776925,17.1924237 L21.6771403,20.7944763 L17.5182299,20.7939237 L17.5187821,17.7030553 C17.5187821,17.1028974 17.4458866,16.6889763 17.2995433,16.4623974 C17.1537522,16.2347132 16.9024836,16.1208711 16.5462896,16.1208711 C16.1729761,16.1208711 15.9172896,16.2512921 15.7797821,16.5104763 C15.6417224,16.7702132 15.5732448,17.1515289 15.5732448,17.6544237 L15.5721403,28.1433711 C15.5721403,28.69545 15.6527672,29.0966605 15.8151254,29.3481079 C15.9769313,29.6001079 16.2204687,29.7255553 16.5446328,29.7255553 C17.1929612,29.7255553 17.5176776,29.1983447 17.5176776,28.1439237 L17.5176776,24.3716605 L21.7257373,24.3722132 L21.7251851,28.3141342 C21.7246328,31.8189237 19.9652,33.5713184 16.4468866,33.5707658 C14.9227075,33.5707658 13.7028119,33.0921868 12.7872,32.1344763" id="Fill-3" fill="#FFFFFF"></path>
                    <polygon id="Fill-5" fill="#FFFFFF" points="26.8558149 33.3768474 26.8574716 16.4873211 24.3768149 16.4873211 24.3773672 12.4713474 33.5213373 12.4719 33.5213373 16.4878737 31.0406806 16.4878737 31.0390239 33.3774"></polygon>
                    <path d="M42.3721791,29.2415605 C42.5019552,28.9171658 42.5671194,28.46235 42.5671194,27.8782184 L42.5676716,17.6567447 C42.5676716,17.2030342 42.5074776,16.8338763 42.3854328,16.5498237 C42.2639403,16.2663237 42.0165373,16.1237447 41.6437761,16.1237447 C40.9462985,16.1237447 40.5983881,16.6509553 40.5978358,17.7053763 L40.5972836,27.9025342 C40.5972836,28.5032447 40.6696269,28.9575079 40.8159701,29.2653237 C40.9617612,29.5742447 41.2290448,29.7278763 41.6183731,29.7278763 C41.9911343,29.7278763 42.242403,29.5659553 42.3721791,29.2415605 M37.7753433,32.0279289 C36.9000448,30.9972711 36.4626716,29.5493763 36.4626716,27.6831395 L36.4637761,17.7291395 C36.4637761,15.9286658 36.9017015,14.5697447 37.7775522,13.6529289 C38.6528507,12.7366658 39.9334925,12.2779816 41.6200299,12.2785342 C43.3060149,12.2785342 44.587209,12.7372184 45.4625075,13.6534816 C46.337806,14.5702974 46.7757313,15.9292184 46.7751791,17.7302447 L46.7746269,27.6842447 C46.7740746,29.5665079 46.3361493,31.0182711 45.4602985,32.0400868 C44.585,33.0624553 43.303806,33.5730868 41.6178209,33.5730868 C39.9318358,33.5730868 38.651194,33.0580342 37.7753433,32.0279289" id="Fill-7" fill="#FFFFFF"></path>
                    <path d="M55.6512582,20.2134947 C56.2349746,20.2134947 56.527109,19.5807316 56.527109,18.3152053 C56.527109,17.7636789 56.5028104,17.3497579 56.4542134,17.0739947 C56.4056164,16.7987842 56.3161537,16.6081263 56.1869299,16.5020211 C56.0566015,16.3964684 55.870497,16.3439684 55.6275119,16.3439684 L54.6544672,16.3439684 L54.6544672,20.2134947 L55.6512582,20.2134947 Z M50.3989149,12.4738895 L56.8197955,12.4744421 C57.8408851,12.4744421 58.6311388,12.7059947 59.1905567,13.1679947 C59.7499746,13.6305474 60.1266015,14.2798895 60.3215418,15.1149158 C60.5159299,15.9516 60.6131239,17.0176263 60.6125716,18.3157579 C60.6125716,19.5000474 60.458497,20.4251526 60.1503478,21.0899684 C59.8421985,21.7558895 59.3070791,22.2173368 58.5449896,22.4770737 C59.1778552,22.6074947 59.635109,22.9236 59.9195119,23.4264947 C60.2028104,23.9293895 60.3447358,24.6107842 60.3447358,25.4706789 L60.2950343,33.3799421 L56.2095716,33.3799421 L56.2101239,25.2021 C56.2106761,24.6185211 56.0969149,24.2454947 55.8699448,24.0830211 C55.6424224,23.9211 55.2293478,23.8398632 54.6296164,23.8398632 L54.6285119,33.3793895 L50.3972582,33.3793895 L50.3989149,12.4738895 Z" id="Fill-9" fill="#FFFFFF"></path>
                    <polygon id="Fill-11" fill="#FFFFFF" points="66.4722119 33.3806053 66.4727642 26.4937105 63.1427642 12.4751053 67.2768239 12.4751053 68.4431522 19.5576316 69.6116896 12.4756579 73.7457493 12.4762105 70.4124358 26.4937105 70.4118836 33.3811579"></polygon>
                    <g id="Group-15">
                        <mask id="mask-2" fill="white">
                            <use xlink:href="#path-1"></use>
                        </mask>
                        <g id="Clip-14"></g>
                        <path d="M2.93857313,5.35046842 C4.34899104,5.35046842 4.94099104,4.35296842 4.94099104,3.26594211 C4.94099104,2.21925789 4.3412597,1.13278421 2.9551403,1.10846842 C1.64191642,1.10791579 0.936707463,2.02417895 0.936707463,3.26538947 C0.952722388,4.27173158 1.53588657,5.35046842 2.93857313,5.35046842 M5.84058806,3.24991579 C5.84058806,4.78291579 4.90840896,6.1866 2.93857313,6.1866 C0.968737313,6.18604737 0.036558209,4.75031053 0.0371104478,3.25765263 C0.0371104478,1.52902105 1.24485672,0.280626316 2.9551403,0.280626316 C4.89294627,0.288915789 5.8411403,1.71636316 5.84058806,3.24991579" id="Fill-13" fill="#FFFFFF" mask="url(#mask-2)"></path>
                    </g>
                    <path d="M11.8803687,3.48561326 L13.5989358,3.48561316 C15.0988164,3.48616579 15.0905328,1.21429737 13.5989358,1.21429737 L11.8803687,1.21429737 L11.8803687,3.48561326 Z M11.8803687,4.32119211 L11.8803687,6.06529737 L10.9724881,6.06474474 L10.9724881,0.387007895 C11.8400552,0.387007895 12.7319209,0.378718421 13.5989358,0.378718421 C16.3065627,0.378718421 16.314294,4.30516579 13.5989358,4.32119211 L11.8803687,4.32119211 Z" id="Fill-16" fill="#FFFFFF"></path>
                    <path d="M21.9164254,1.20711316 L20.0520672,1.20711316 L20.0520672,0.388113158 C21.6811716,0.388113158 23.0595597,0.388113158 24.6892164,0.388665789 L24.6892164,1.20711316 L22.8325896,1.20711316 L22.8320373,6.06640263 L21.9158731,6.06585 L21.9164254,1.20711316 Z" id="Fill-18" fill="#FFFFFF"></path>
                    <polygon id="Fill-20" fill="#FFFFFF" points="29.5929866 6.0669 29.5935388 0.388610526 30.4931358 0.389163158 30.4925836 6.0669"></polygon>
                    <path d="M40.7472716,5.33808947 C40.1635552,5.91393158 39.4097493,6.18140526 38.6156299,6.18140526 C36.5563313,6.18085263 35.6324358,4.76169474 35.6247045,3.26848421 C35.6164209,1.77637895 36.5894657,0.292010526 38.6161821,0.292010526 C39.3777194,0.292563158 40.1155104,0.576063158 40.6909433,1.15245789 L40.0829284,1.73603684 C39.6775851,1.33869474 39.1430179,1.15190526 38.6156299,1.15190526 C37.1726299,1.15190526 36.5160179,2.21461579 36.5243015,3.26074737 C36.5320328,4.29914211 37.1483313,5.32924737 38.6156299,5.3298 C39.1424657,5.3298 39.7256299,5.11095789 40.1232418,4.71306316 L40.7472716,5.33808947 Z" id="Fill-22" fill="#FFFFFF"></path>
                    <path d="M48.1245746,1.34742632 L46.9245597,4.04868947 L49.3240373,4.04924211 L48.1245746,1.34742632 Z M49.6564851,4.87653158 L46.5838284,4.87597895 L46.0492612,6.06855789 L45.0845,6.06800526 L47.6303209,0.390821053 L48.6193806,0.390821053 L51.164097,6.06855789 L50.1993358,6.06855789 L49.6564851,4.87653158 Z" id="Fill-24" fill="#FFFFFF"></path>
                    <polygon id="Fill-26" fill="#FFFFFF" points="56.9121299 0.391373684 56.9121299 5.22634737 59.9030552 5.22634737 59.9030552 6.06966316 56.003697 6.06911053 56.0042493 0.391373684"></polygon>
                    <polygon id="Fill-28" fill="#FFFFFF" points="15.927506 62.3827105 13.8317597 62.3827105 13.8317597 59.5438421 15.9153567 59.5438421 15.9153567 59.9859474 14.2857 59.9859474 14.2857 60.7518947 15.8501925 60.7518947 15.8501925 61.1741053 14.2857 61.1741053 14.2857 61.9367368 15.927506 61.9367368"></polygon>
                    <path d="M20.2322075,60.1721842 C20.0980134,59.9771053 19.8268642,59.8599474 19.5308642,59.8555263 C19.1498194,59.8555263 18.8742522,60.0141316 18.8742522,60.2860263 C18.8742522,60.5612368 19.1901328,60.6386053 19.5634463,60.6911053 C20.1471627,60.7723421 20.7021627,60.9348158 20.7021627,61.5714474 C20.698297,62.2080789 20.1184463,62.4473684 19.5269985,62.4473684 C18.9835955,62.4473684 18.566103,62.2810263 18.3065507,61.8024474 L18.6472821,61.5753158 C18.8499537,61.9201579 19.2022821,62.0417368 19.5308642,62.0417368 C19.8715955,62.0417368 20.2482224,61.9284474 20.2482224,61.5714474 C20.2482224,61.2630789 19.9201925,61.1575263 19.5225806,61.1050263 C18.959297,61.0276579 18.4241776,60.8861842 18.4241776,60.2777368 C18.4203119,59.6891842 19.007894,59.4620526 19.5187149,59.4620526 C19.9279239,59.4620526 20.3371328,59.5598684 20.5768045,59.9406316 L20.2322075,60.1721842 Z" id="Fill-30" fill="#FFFFFF"></path>
                    <polygon id="Fill-32" fill="#FFFFFF" points="23.8840522 59.9527895 22.9518731 59.9527895 22.9518731 59.5438421 25.2701716 59.5438421 25.2701716 59.9527895 24.3424104 59.9527895 24.3424104 62.3827105 23.8840522 62.3827105"></polygon>
                    <g id="Group-36" transform="translate(27.059701, 61.894737)">
                        <mask id="mask-4" fill="white">
                            <use xlink:href="#path-3"></use>
                        </mask>
                        <g id="Clip-35"></g>
                        <path d="M0.865523881,0.264821053 C0.865523881,0.609663158 0.350837313,0.609663158 0.350837313,0.264821053 C0.350837313,-0.0761526316 0.865523881,-0.0761526316 0.865523881,0.264821053" id="Fill-34" fill="#FFFFFF" mask="url(#mask-4)"></path>
                    </g>
                    <path d="M30.4340463,60.3505184 C30.4749119,59.6973079 31.0542104,59.5072026 31.5893299,59.5072026 C32.1161657,59.5072026 32.6877328,59.7177553 32.6877328,60.3709658 C32.6877328,61.0562289 32.1365985,61.2308605 31.5650313,61.2308605 C31.2855985,61.2308605 30.8598224,61.2993868 30.8598224,61.6646763 L30.8598224,61.9564658 L32.6877328,61.9564658 L32.6877328,62.3825447 L30.421897,62.3825447 L30.421897,61.6646763 C30.421897,61.0158868 31.0094791,60.8290974 31.5611657,60.8290974 C31.8163,60.8290974 32.2415239,60.7478605 32.2415239,60.3792553 C32.2415239,60.0222553 31.9339269,59.9128342 31.5893299,59.9006763 C31.2613,59.9006763 30.8962701,60.0178342 30.8879866,60.3505184 L30.4340463,60.3505184 Z" id="Fill-37" fill="#FFFFFF"></path>
                    <path d="M35.634203,61.2105237 C35.634203,62.2892605 37.1015015,62.2892605 37.1015015,61.2105237 L37.1015015,60.7153658 C37.1015015,59.6532079 35.634203,59.64105 35.634203,60.7153658 L35.634203,61.2105237 Z M35.1802627,60.7153658 C35.1802627,59.0690763 37.5554418,59.0729447 37.5554418,60.7153658 L37.5554418,61.2105237 C37.5554418,62.8529447 35.1802627,62.8573658 35.1802627,61.2105237 L35.1802627,60.7153658 Z" id="Fill-39" fill="#FFFFFF"></path>
                    <polygon id="Fill-41" fill="#FFFFFF" points="40.0200284 62.0052079 40.5308493 62.0052079 40.5308493 60.0991816 40.0443269 60.2367868 40.0443269 59.8394447 40.9803716 59.5437868 40.9803716 62.0052079 41.4751776 62.0052079 41.4751776 62.3826553 40.0200284 62.3826553"></polygon>
                    <path d="M45.3215761,61.3969816 L45.3215761,60.0750868 L44.1988746,61.3969816 L45.3215761,61.3969816 Z M45.7716507,59.5473237 L45.7716507,61.3969816 L46.1079642,61.3969816 L46.1079642,61.8186395 L45.7716507,61.8186395 L45.7716507,62.3828763 L45.3215761,62.3828763 L45.3215761,61.8186395 L43.7488,61.8186395 L43.6924716,61.4091395 L45.2486806,59.5473237 L45.7716507,59.5473237 Z" id="Fill-43" fill="#FFFFFF"></path>
                    <path d="M27.8295224,45.2149895 L27.3302985,44.6452263 C27.3534925,44.6203579 27.9079403,44.0389895 28.8301791,43.7422263 C29.6784179,43.4692263 31.0126269,43.3902 32.5500597,44.5628842 L32.139194,45.2127789 C29.676209,43.3338316 27.9035224,45.1370684 27.8295224,45.2149895" id="Fill-45" fill="#FFFFFF"></path>
                    <polygon id="Fill-47" fill="#FFFFFF" points="33.8113731 41.8460368 32.7317463 42.2616158 26.8360448 42.2616158 24.1273134 41.4702474 35.443791 41.4702474"></polygon>
                    <path d="M38.6885254,53.0454474 C36.7291821,52.6613684 34.8940925,51.6191053 33.5217791,50.1104211 C32.1174358,48.5669211 31.3443015,46.683 31.3443015,44.8062632 C31.3443015,43.6910526 31.8175701,42.9704211 32.677406,42.2680263 C33.4836746,41.6087368 34.5848388,41.4562105 35.7776746,41.4562105 L38.8205104,41.4562105 L38.8205104,41.8773158 L35.7776746,41.8773158 C33.9320925,41.8773158 32.6426149,43.2677368 32.6426149,44.8062632 C32.6426149,46.3895526 33.304197,48.6907105 34.5064209,50.0115 C35.6307791,51.2477368 37.1074657,52.1203421 38.6890776,52.4883947 L38.6885254,53.0454474 Z" id="Fill-49" fill="#FFFFFF"></path>
                    <path d="M40.3214955,53.2076447 L40.3192866,53.2076447 C40.2381075,53.2076447 40.1530627,53.2059868 40.0586299,53.2026711 L40.0448239,52.6505921 C40.123794,52.6533553 40.2541224,52.6461711 40.320391,52.6461711 C41.5706597,52.6411974 42.7452716,52.1764342 43.6283015,51.3386447 C44.5113313,50.5003026 44.9978537,48.7202763 44.9978537,47.5365395 L44.9978537,45.5011974 C44.9978537,43.6769605 43.428391,41.8770395 41.4988687,41.8770395 L40.0818239,41.8770395 L40.0818239,41.4559342 L41.4988687,41.4559342 C44.1440925,41.4559342 46.2967194,42.9999868 46.2967194,45.5011974 L46.2967194,47.5365395 C46.2967194,49.0474342 45.6754507,50.46825 44.5483313,51.5386974 C43.4206597,52.6085921 41.9207791,53.2015658 40.3237045,53.2076447 L40.3214955,53.2076447 Z" id="Fill-51" fill="#FFFFFF"></path>
                    <path d="M21.2166836,53.0454474 C23.1760269,52.6613684 25.0111164,51.6191053 26.3834299,50.1104211 C27.7877731,48.5669211 28.5614597,46.683 28.5614597,44.8062632 C28.5614597,43.6910526 28.0876388,42.9704211 27.2283552,42.2680263 C26.4215343,41.6087368 25.3209224,41.4562105 24.1275343,41.4562105 L21.0846985,41.4562105 L21.0846985,41.8773158 L24.1275343,41.8773158 C25.9731164,41.8773158 27.262594,43.2677368 27.262594,44.8062632 C27.262594,46.3895526 26.6010119,48.6907105 25.3987881,50.0115 C24.2744299,51.2477368 22.7977433,52.1203421 21.2161313,52.4883947 L21.2166836,53.0454474 Z" id="Fill-53" fill="#FFFFFF"></path>
                    <path d="M19.5839343,53.2076447 L19.5861433,53.2076447 C19.6673224,53.2076447 19.7523672,53.2059868 19.8468,53.2026711 L19.860606,52.6505921 C19.7816358,52.6533553 19.6507552,52.6461711 19.5850388,52.6461711 C18.3342179,52.6411974 17.159606,52.1764342 16.2771284,51.3386447 C15.3935463,50.5003026 14.9070239,48.7202763 14.9070239,47.5365395 L14.9070239,45.5011974 C14.9070239,43.6769605 16.4770388,41.8770395 18.4065612,41.8770395 L19.823606,41.8770395 L19.823606,41.4559342 L18.4065612,41.4559342 C15.7607851,41.4559342 13.6087104,42.9999868 13.6087104,45.5011974 L13.6087104,47.5365395 C13.6087104,49.0474342 14.2294269,50.46825 15.3570985,51.5386974 C16.4842179,52.6085921 17.9846507,53.2015658 19.5817254,53.2076447 L19.5839343,53.2076447 Z" id="Fill-55" fill="#FFFFFF"></path>
                </g>
            </g>
        </g>
    </g>
</svg>