<svg xmlns="http://www.w3.org/2000/svg" width="155" height="99" viewBox="0 0 155 99">
    <g fill="none" fill-rule="evenodd">
        <path fill="#E8E1DB" d="M0 75.983h154.997V-.81H0z"/>
        <path fill="#25272C" d="M0 99h155V64.983H0z"/>
        <path fill="#E7E0DA" d="M50.554 80.971c-.096-.662-.27-1.093-.525-1.29-.26-.211-.58-.316-.959-.316h-.22v5.253h.89v.212h-2.858v-.212h.89v-5.253h-.237c-.379 0-.699.102-.958.306-.255.21-.43.643-.526 1.3h-.272l.094-1.818h4.86l.093 1.818h-.272zM58.27 80.98c0-.56-.112-.994-.339-1.3-.237-.295-.59-.442-1.06-.442-.475 0-.825.147-1.052.442-.226.294-.339.728-.339 1.3v2.023c0 .572.113 1.006.34 1.3.226.295.576.442 1.051.442s.826-.147 1.052-.442c.232-.3.348-.733.348-1.3V80.98zm.45 3.086c-.537.594-1.153.892-1.849.892-.701 0-1.314-.295-1.84-.884a3.008 3.008 0 0 1-.797-2.083c0-.792.262-1.484.789-2.074.53-.594 1.147-.891 1.848-.891.696 0 1.312.294 1.85.883.53.59.797 1.284.797 2.082 0 .8-.266 1.491-.798 2.075zM67.605 79.365v3.613c0 .702-.164 1.206-.492 1.512-.328.312-.859.468-1.594.468-.74 0-1.275-.159-1.603-.476-.328-.323-.492-.865-.492-1.624v-3.493h-.84v-.212h2.757v.212h-.84v3.876c0 .498.11.861.33 1.088.221.238.566.356 1.035.356.481 0 .846-.132 1.095-.4.254-.271.381-.659.381-1.163v-3.757h-.84v-.212h1.943v.212h-.84zM76.415 84.83h-4.698v-.212h.84v-5.253h-.84v-.212h2.799v.212h-.882v5.253h1.094c.514 0 .89-.15 1.128-.45.243-.295.373-.712.39-1.25h.263l-.094 1.912zM83.907 80.98c0-.56-.112-.994-.339-1.3-.237-.295-.59-.442-1.06-.442-.475 0-.825.147-1.051.442-.226.294-.34.728-.34 1.3v2.023c0 .572.114 1.006.34 1.3.226.295.576.442 1.051.442s.826-.147 1.052-.442c.232-.3.347-.733.347-1.3V80.98zm.45 3.086c-.537.594-1.153.892-1.849.892-.7 0-1.314-.295-1.84-.884a3.006 3.006 0 0 1-.797-2.083c0-.792.262-1.484.789-2.074.53-.594 1.147-.891 1.848-.891.696 0 1.312.294 1.849.883.532.59.797 1.284.797 2.082 0 .8-.265 1.491-.797 2.075zM93.242 79.365v3.613c0 .702-.164 1.206-.492 1.512-.327.312-.86.468-1.594.468-.741 0-1.275-.159-1.603-.476-.328-.323-.492-.865-.492-1.624v-3.493h-.84v-.212h2.757v.212h-.84v3.876c0 .498.111.861.33 1.088.222.238.566.356 1.035.356.481 0 .846-.132 1.095-.4.254-.271.382-.659.382-1.163v-3.757h-.84v-.212h1.942v.212h-.84zM100.4 84.43c-.333.352-.76.528-1.28.528-.25 0-.466-.038-.653-.111a1.801 1.801 0 0 1-.56-.323l-.408.357h-.143v-1.69h.245c.085.424.258.79.518 1.095.26.306.602.459 1.026.459.362 0 .665-.113.908-.34a1.11 1.11 0 0 0 .373-.841c0-.357-.14-.62-.416-.791a4.418 4.418 0 0 0-1.102-.442c-.532-.142-.916-.348-1.154-.62-.237-.278-.356-.64-.356-1.087 0-.466.144-.848.432-1.148.3-.3.67-.45 1.112-.45.237 0 .458.033.661.101.204.069.393.173.569.315l.322-.331h.161v1.605h-.271a1.886 1.886 0 0 0-.467-1.061 1.3 1.3 0 0 0-.992-.417c-.289 0-.537.096-.746.289a.905.905 0 0 0-.314.688c0 .323.107.533.321.63.222.107.54.214.96.323.66.17 1.116.392 1.365.67.254.29.381.694.381 1.216 0 .572-.164 1.032-.491 1.377M109.141 84.83h-4.817v-.212h.84v-5.253h-.84v-.212h4.673l.06 1.53h-.238c-.125-.544-.305-.898-.543-1.062-.237-.17-.59-.256-1.06-.256h-.975v2.44h.229c.43 0 .712-.103.848-.306.141-.21.212-.454.212-.731h.237v2.371h-.237c0-.3-.068-.561-.204-.782-.141-.227-.427-.34-.856-.34h-.23v2.6h1.137c.548 0 .93-.132 1.145-.399.215-.266.365-.67.45-1.215h.246l-.077 1.827z"/>
        <path fill="#25272C" d="M26.814 23.682v.546h-2.77v-5.021h.573v4.475zM38.686 22.162c0 1.305-.788 2.094-2.097 2.094-1.318 0-2.112-.789-2.112-2.094v-2.955h.572v2.955c0 .975.588 1.542 1.54 1.542.951 0 1.524-.567 1.524-1.542v-2.955h.573v2.955zM50.797 24.228l-3.006-4.03v4.03h-.573v-5.021h.594l3.007 4.038v-4.038h.565v5.02zM60.565 19.76v1.649h2.527v.552h-2.527v1.722h2.92v.545h-3.492v-5.02h3.4v.551zM73.396 19.76v4.468h-.572v-4.469h-1.632v-.552h3.844v.552zM84.833 19.76v4.468h-.572v-4.469H82.63v-.552h3.843v.552zM94.959 19.76v1.649h2.527v.552h-2.527v1.722h2.92v.545h-3.493v-5.02h3.4v.551zM107.948 22.09c.909 0 1.424-.402 1.424-1.183 0-.76-.515-1.148-1.424-1.148h-1.332v2.331h1.332zm.336.538a5.06 5.06 0 0 1-.336.015h-1.332v1.585h-.573v-5.021h1.905c1.253 0 1.975.617 1.975 1.685 0 .832-.4 1.392-1.124 1.629l1.175 1.707h-.652l-1.038-1.6zM118.295 24.228h.573v-5.02h-.573zM128.032 19.76v1.649h2.527v.552h-2.527v1.722h2.92v.545h-3.492v-5.02h3.4v.551zM29.708 30.855c.019-1.9-.983-2.849-3.004-2.849H25.38v5.697h1.324c1.99 0 2.992-.95 3.004-2.848m.92 0c0 .998-.316 1.77-.947 2.319-.644.566-1.573.849-2.789.849H25.38v6.574l1.066.329H23.33l1.075-.33v-12.59l-1.075-.32h3.562c1.216 0 2.142.28 2.78.836.638.557.956 1.334.956 2.333M43.39 40.926h-7.034l1.075-.33v-12.59l-1.075-.32h6.825v2.329l-.675-2.009h-4.1v5.433h2.798l.564-1.571v3.525l-.564-1.57h-2.798v6.774h4.237l.747-2.146zM55.856 30.818c0-1.875-1.062-2.812-3.187-2.812h-1.004v5.515h.301c.469 0 .907.049 1.315.146.895-.116 1.573-.493 2.036-1.132a2.891 2.891 0 0 0 .539-1.717zm2.524 10.108h-3.053l.921-.32c-.377-4.51-1.85-6.766-4.42-6.766h-.163v6.757l.938.329h-2.988l1.075-.33v-12.59l-1.075-.32h3.243c1.227 0 2.187.282 2.88.845.692.563 1.038 1.338 1.038 2.324 0 .718-.275 1.363-.824 1.935-.55.573-1.232.932-2.046 1.078 1.057.432 1.856 1.314 2.396 2.648.34.846.666 2.215.975 4.108l-.008-.027 1.11.329zM67.366 40.926h-3.117l1.075-.33v-12.59l-1.075-.32h3.117l-1.066.32v12.59zM80.417 40.286c-.669.493-1.591.74-2.77.74-2.922 0-4.382-2.24-4.382-6.72 0-4.48 1.46-6.72 4.382-6.72 1.075 0 1.947.247 2.615.74v2.438l-.71-2.347a3.626 3.626 0 0 0-1.896-.53c-.984 0-1.774.52-2.369 1.562-.662 1.138-.993 2.757-.993 4.857s.331 3.72.993 4.857c.595 1.035 1.385 1.553 2.369 1.553.601 0 1.197-.14 1.786-.42v-5.168l-1.121-.448h2.096v5.606zM95.897 27.687l-1.075.328v12.91l-.814.002-5.91-12.578v12.248l.938.329h-2.414l1.075-.33v-12.59l-1.075-.32h3.043l-.72.238 5.477 11.44V28.015l-.939-.328zM131.667 27.687l-1.075.328v12.91l-.814.002-5.91-12.578v12.248l.938.329h-2.414l1.074-.33v-12.59l-1.074-.32h3.043l-.72.238 5.476 11.44V28.015l-.938-.328zM109.502 40.557c-3.584 0-6.533-2.852-6.533-6.361 0-3.51 2.95-6.342 6.533-6.342 3.584 0 6.533 2.832 6.533 6.342 0 3.509-2.949 6.361-6.533 6.361m6.395-9.99c-1.287-2.128-3.665-3.554-6.395-3.554-3.64 0-6.66 2.53-7.288 5.887H101.1v1.556h1c.143 3.86 3.395 6.942 7.401 6.942 4.096 0 7.414-3.222 7.414-7.202a6.985 6.985 0 0 0-.621-2.88c1.195-.79 2.531-.738 3.796.174l.488-.68c-1.528-1.101-3.213-1.18-4.682-.244"/>
        <path fill="#F9BA43" d="M109.502 28.265c-1.328 0-2.558.42-3.565 1.127h7.13a6.195 6.195 0 0 0-3.565-1.127"/>
        <path fill="#A4C857" d="M105.937 29.392c-.22.154-.429.32-.625.5h8.38a6.179 6.179 0 0 0-.625-.5h-7.13z"/>
        <path fill="#A42A36" d="M103.544 32.9h11.916a5.778 5.778 0 0 0-.803-1.873h-10.31a5.778 5.778 0 0 0-.803 1.873"/>
        <path fill="#E55031" d="M103.544 32.9c-.059.254-.1.513-.125.778h12.166a5.773 5.773 0 0 0-.125-.778h-11.916z"/>
        <path fill="#A42A36" d="M103.995 36.751h11.014c.15-.304.274-.62.369-.95h-11.752c.095.33.22.646.37.95"/>
        <path fill="#0BACA3" d="M103.995 36.751c.19.386.42.748.687 1.082h9.64c.267-.334.497-.696.687-1.082h-11.014z"/>
        <path fill="#3367AB" d="M106.491 39.363h6.022c.4-.223.771-.49 1.109-.792h-8.24c.338.303.709.569 1.11.792"/>
        <path fill="#0BACA3" d="M112.513 39.363h-6.022a6.18 6.18 0 0 0 6.022 0"/>
        <path fill="#25272C" d="M104.395 35.184c0-3.61 3.033-6.523 6.72-6.523.22 0 .436.012.65.032a6.223 6.223 0 0 0-2.263-.428c-3.352 0-6.11 2.649-6.11 5.931 0 1.73.77 3.283 1.985 4.371a6.351 6.351 0 0 1-.982-3.383"/>
    </g>
</svg>
